<svg width="328" height="34" viewBox="0 0 328 34" fill="none" xmlns="http://www.w3.org/2000/svg">
<path d="M86.2624 3.51H83.0224V12H80.5624V3.51H77.3074V1.35H86.2624V3.51ZM94.8588 12H92.4588V7.575C92.4588 7.065 92.3588 6.69 92.1588 6.45C91.9588 6.21 91.6838 6.09 91.3338 6.09C91.1938 6.09 91.0388 6.125 90.8688 6.195C90.7088 6.255 90.5488 6.35 90.3888 6.48C90.2388 6.6 90.0988 6.745 89.9688 6.915C89.8388 7.085 89.7388 7.275 89.6688 7.485V12H87.2688V1.05H89.6688V5.445C89.9588 4.975 90.3388 4.615 90.8088 4.365C91.2888 4.105 91.8138 3.975 92.3838 3.975C92.9138 3.975 93.3388 4.07 93.6588 4.26C93.9888 4.44 94.2388 4.675 94.4088 4.965C94.5888 5.245 94.7088 5.565 94.7688 5.925C94.8288 6.275 94.8588 6.62 94.8588 6.96V12ZM98.6884 12.15C98.2984 12.15 97.9334 12.09 97.5934 11.97C97.2634 11.84 96.9784 11.665 96.7384 11.445C96.4984 11.215 96.3084 10.95 96.1684 10.65C96.0284 10.34 95.9584 10.005 95.9584 9.645C95.9584 9.255 96.0384 8.9 96.1984 8.58C96.3684 8.26 96.6034 7.985 96.9034 7.755C97.2034 7.525 97.5584 7.345 97.9684 7.215C98.3784 7.085 98.8334 7.02 99.3334 7.02C99.6634 7.02 99.9834 7.05 100.293 7.11C100.603 7.16 100.873 7.24 101.103 7.35V6.99C101.103 6.08 100.578 5.625 99.5284 5.625C99.0984 5.625 98.6884 5.7 98.2984 5.85C97.9084 5.99 97.4984 6.205 97.0684 6.495L96.3634 4.995C96.8834 4.655 97.4234 4.4 97.9834 4.23C98.5434 4.06 99.1384 3.975 99.7684 3.975C100.958 3.975 101.878 4.255 102.528 4.815C103.178 5.375 103.503 6.195 103.503 7.275V9.3C103.503 9.54 103.538 9.71 103.608 9.81C103.688 9.9 103.823 9.955 104.013 9.975V12C103.803 12.05 103.613 12.08 103.443 12.09C103.273 12.11 103.118 12.12 102.978 12.12C102.528 12.12 102.188 12.035 101.958 11.865C101.728 11.685 101.583 11.435 101.523 11.115L101.478 10.755C101.128 11.205 100.708 11.55 100.218 11.79C99.7384 12.03 99.2284 12.15 98.6884 12.15ZM99.3934 10.425C99.6534 10.425 99.9034 10.38 100.143 10.29C100.393 10.2 100.598 10.08 100.758 9.93C100.988 9.75 101.103 9.56 101.103 9.36V8.61C100.893 8.53 100.663 8.47 100.413 8.43C100.173 8.38 99.9484 8.355 99.7384 8.355C99.2984 8.355 98.9334 8.455 98.6434 8.655C98.3634 8.855 98.2234 9.115 98.2234 9.435C98.2234 9.725 98.3334 9.965 98.5534 10.155C98.7734 10.335 99.0534 10.425 99.3934 10.425ZM112.832 12H110.432V7.575C110.432 7.055 110.332 6.68 110.132 6.45C109.942 6.21 109.687 6.09 109.367 6.09C109.197 6.09 109.027 6.125 108.857 6.195C108.687 6.265 108.522 6.365 108.362 6.495C108.202 6.615 108.057 6.76 107.927 6.93C107.807 7.1 107.712 7.285 107.642 7.485V12H105.242V4.125H107.402V5.445C107.692 4.975 108.102 4.615 108.632 4.365C109.162 4.105 109.772 3.975 110.462 3.975C110.972 3.975 111.382 4.07 111.692 4.26C112.002 4.44 112.242 4.68 112.412 4.98C112.582 5.27 112.692 5.59 112.742 5.94C112.802 6.29 112.832 6.63 112.832 6.96V12ZM119.722 12L117.667 8.835L116.827 9.705V12H114.427V1.05H116.827V7.395L119.482 4.125H122.032L119.197 7.515L122.272 12H119.722ZM126.103 13.185C126.303 13.255 126.488 13.305 126.658 13.335C126.838 13.365 126.998 13.38 127.138 13.38C127.428 13.38 127.653 13.28 127.813 13.08C127.973 12.88 128.118 12.52 128.248 12L125.248 4.125H127.723L129.553 9.945L131.128 4.125H133.378L130.378 13.275C130.168 13.925 129.793 14.45 129.253 14.85C128.713 15.26 128.073 15.465 127.333 15.465C127.133 15.465 126.928 15.445 126.718 15.405C126.518 15.375 126.313 15.32 126.103 15.24V13.185ZM137.806 12.15C137.136 12.15 136.536 12.04 136.006 11.82C135.486 11.6 135.046 11.305 134.686 10.935C134.326 10.555 134.051 10.12 133.861 9.63C133.681 9.13 133.591 8.61 133.591 8.07C133.591 7.53 133.681 7.015 133.861 6.525C134.051 6.025 134.326 5.59 134.686 5.22C135.046 4.84 135.486 4.54 136.006 4.32C136.536 4.09 137.136 3.975 137.806 3.975C138.476 3.975 139.071 4.09 139.591 4.32C140.111 4.54 140.551 4.84 140.911 5.22C141.271 5.59 141.546 6.025 141.736 6.525C141.926 7.015 142.021 7.53 142.021 8.07C142.021 8.61 141.926 9.13 141.736 9.63C141.556 10.12 141.286 10.555 140.926 10.935C140.566 11.305 140.121 11.6 139.591 11.82C139.071 12.04 138.476 12.15 137.806 12.15ZM136.051 8.07C136.051 8.69 136.216 9.19 136.546 9.57C136.876 9.94 137.296 10.125 137.806 10.125C138.056 10.125 138.286 10.075 138.496 9.975C138.706 9.875 138.886 9.735 139.036 9.555C139.196 9.375 139.321 9.16 139.411 8.91C139.501 8.65 139.546 8.37 139.546 8.07C139.546 7.45 139.381 6.955 139.051 6.585C138.721 6.205 138.306 6.015 137.806 6.015C137.556 6.015 137.321 6.065 137.101 6.165C136.891 6.265 136.706 6.405 136.546 6.585C136.396 6.765 136.276 6.985 136.186 7.245C136.096 7.495 136.051 7.77 136.051 8.07ZM145.596 12.15C144.786 12.15 144.171 11.9 143.751 11.4C143.341 10.89 143.136 10.145 143.136 9.165V4.125H145.536V8.64C145.536 9.12 145.631 9.49 145.821 9.75C146.011 10 146.281 10.125 146.631 10.125C146.951 10.125 147.261 10.04 147.561 9.87C147.861 9.7 148.126 9.405 148.356 8.985V4.125H150.756V9.3C150.756 9.54 150.791 9.71 150.861 9.81C150.941 9.9 151.076 9.955 151.266 9.975V12C151.036 12.05 150.841 12.08 150.681 12.09C150.521 12.11 150.376 12.12 150.246 12.12C149.386 12.12 148.896 11.785 148.776 11.115L148.731 10.635C148.371 11.155 147.921 11.54 147.381 11.79C146.851 12.03 146.256 12.15 145.596 12.15ZM156.627 12V6.585H155.622V4.77H156.627V4.125C156.627 3.635 156.692 3.19 156.822 2.79C156.952 2.39 157.137 2.05 157.377 1.77C157.617 1.49 157.907 1.275 158.247 1.125C158.587 0.975 158.962 0.9 159.372 0.9C160.012 0.9 160.697 1.055 161.427 1.365L160.992 3.165C160.832 3.095 160.652 3.04 160.452 3C160.262 2.95 160.082 2.925 159.912 2.925C159.322 2.925 159.027 3.295 159.027 4.035V4.77H160.857V6.585H159.027V12H156.627ZM165.242 12.15C164.572 12.15 163.972 12.04 163.442 11.82C162.922 11.6 162.482 11.305 162.122 10.935C161.762 10.555 161.487 10.12 161.297 9.63C161.117 9.13 161.027 8.61 161.027 8.07C161.027 7.53 161.117 7.015 161.297 6.525C161.487 6.025 161.762 5.59 162.122 5.22C162.482 4.84 162.922 4.54 163.442 4.32C163.972 4.09 164.572 3.975 165.242 3.975C165.912 3.975 166.507 4.09 167.027 4.32C167.547 4.54 167.987 4.84 168.347 5.22C168.707 5.59 168.982 6.025 169.172 6.525C169.362 7.015 169.457 7.53 169.457 8.07C169.457 8.61 169.362 9.13 169.172 9.63C168.992 10.12 168.722 10.555 168.362 10.935C168.002 11.305 167.557 11.6 167.027 11.82C166.507 12.04 165.912 12.15 165.242 12.15ZM163.487 8.07C163.487 8.69 163.652 9.19 163.982 9.57C164.312 9.94 164.732 10.125 165.242 10.125C165.492 10.125 165.722 10.075 165.932 9.975C166.142 9.875 166.322 9.735 166.472 9.555C166.632 9.375 166.757 9.16 166.847 8.91C166.937 8.65 166.982 8.37 166.982 8.07C166.982 7.45 166.817 6.955 166.487 6.585C166.157 6.205 165.742 6.015 165.242 6.015C164.992 6.015 164.757 6.065 164.537 6.165C164.327 6.265 164.142 6.405 163.982 6.585C163.832 6.765 163.712 6.985 163.622 7.245C163.532 7.495 163.487 7.77 163.487 8.07ZM175.643 6.18C175.063 6.19 174.538 6.285 174.068 6.465C173.598 6.645 173.258 6.915 173.048 7.275V12H170.648V4.125H172.853V5.715C173.123 5.185 173.468 4.77 173.888 4.47C174.318 4.17 174.773 4.015 175.253 4.005C175.363 4.005 175.443 4.005 175.493 4.005C175.543 4.005 175.593 4.01 175.643 4.02V6.18ZM179.788 12V4.125H182.188V12H179.788ZM179.788 3.225V1.05H182.188V3.225H179.788ZM191.421 12H189.021V7.575C189.021 7.055 188.921 6.68 188.721 6.45C188.531 6.21 188.276 6.09 187.956 6.09C187.786 6.09 187.616 6.125 187.446 6.195C187.276 6.265 187.111 6.365 186.951 6.495C186.791 6.615 186.646 6.76 186.516 6.93C186.396 7.1 186.301 7.285 186.231 7.485V12H183.831V4.125H185.991V5.445C186.281 4.975 186.691 4.615 187.221 4.365C187.751 4.105 188.361 3.975 189.051 3.975C189.561 3.975 189.971 4.07 190.281 4.26C190.591 4.44 190.831 4.68 191.001 4.98C191.171 5.27 191.281 5.59 191.331 5.94C191.391 6.29 191.421 6.63 191.421 6.96V12ZM196.121 12.15C195.451 12.15 194.791 12.045 194.141 11.835C193.491 11.615 192.941 11.3 192.491 10.89L193.346 9.42C193.826 9.75 194.291 10.005 194.741 10.185C195.201 10.365 195.641 10.455 196.061 10.455C196.371 10.455 196.611 10.4 196.781 10.29C196.951 10.18 197.036 10.02 197.036 9.81C197.036 9.6 196.926 9.435 196.706 9.315C196.496 9.185 196.121 9.05 195.581 8.91C195.051 8.76 194.601 8.615 194.231 8.475C193.871 8.335 193.576 8.18 193.346 8.01C193.116 7.84 192.951 7.645 192.851 7.425C192.751 7.205 192.701 6.945 192.701 6.645C192.701 6.245 192.781 5.88 192.941 5.55C193.101 5.22 193.321 4.94 193.601 4.71C193.881 4.48 194.211 4.3 194.591 4.17C194.981 4.04 195.401 3.975 195.851 3.975C196.441 3.975 196.991 4.055 197.501 4.215C198.021 4.375 198.521 4.665 199.001 5.085L198.071 6.525C197.621 6.215 197.221 5.99 196.871 5.85C196.521 5.71 196.181 5.64 195.851 5.64C195.591 5.64 195.371 5.695 195.191 5.805C195.011 5.905 194.921 6.07 194.921 6.3C194.921 6.52 195.016 6.685 195.206 6.795C195.406 6.905 195.771 7.025 196.301 7.155C196.861 7.305 197.331 7.455 197.711 7.605C198.101 7.755 198.416 7.925 198.656 8.115C198.896 8.295 199.071 8.505 199.181 8.745C199.291 8.985 199.346 9.27 199.346 9.6C199.346 10.38 199.056 11 198.476 11.46C197.896 11.92 197.111 12.15 196.121 12.15ZM205.601 11.58C205.271 11.72 204.891 11.85 204.461 11.97C204.041 12.09 203.616 12.15 203.186 12.15C202.886 12.15 202.601 12.11 202.331 12.03C202.071 11.96 201.841 11.845 201.641 11.685C201.441 11.515 201.281 11.295 201.161 11.025C201.051 10.755 200.996 10.43 200.996 10.05V5.94H199.991V4.125H200.996V1.62H203.396V4.125H205.001V5.94H203.396V9.225C203.396 9.485 203.461 9.675 203.591 9.795C203.721 9.905 203.886 9.96 204.086 9.96C204.266 9.96 204.451 9.93 204.641 9.87C204.831 9.81 204.996 9.745 205.136 9.675L205.601 11.58ZM208.771 12.15C208.381 12.15 208.016 12.09 207.676 11.97C207.346 11.84 207.061 11.665 206.821 11.445C206.581 11.215 206.391 10.95 206.251 10.65C206.111 10.34 206.041 10.005 206.041 9.645C206.041 9.255 206.121 8.9 206.281 8.58C206.451 8.26 206.686 7.985 206.986 7.755C207.286 7.525 207.641 7.345 208.051 7.215C208.461 7.085 208.916 7.02 209.416 7.02C209.746 7.02 210.066 7.05 210.376 7.11C210.686 7.16 210.956 7.24 211.186 7.35V6.99C211.186 6.08 210.661 5.625 209.611 5.625C209.181 5.625 208.771 5.7 208.381 5.85C207.991 5.99 207.581 6.205 207.151 6.495L206.446 4.995C206.966 4.655 207.506 4.4 208.066 4.23C208.626 4.06 209.221 3.975 209.851 3.975C211.041 3.975 211.961 4.255 212.611 4.815C213.261 5.375 213.586 6.195 213.586 7.275V9.3C213.586 9.54 213.621 9.71 213.691 9.81C213.771 9.9 213.906 9.955 214.096 9.975V12C213.886 12.05 213.696 12.08 213.526 12.09C213.356 12.11 213.201 12.12 213.061 12.12C212.611 12.12 212.271 12.035 212.041 11.865C211.811 11.685 211.666 11.435 211.606 11.115L211.561 10.755C211.211 11.205 210.791 11.55 210.301 11.79C209.821 12.03 209.311 12.15 208.771 12.15ZM209.476 10.425C209.736 10.425 209.986 10.38 210.226 10.29C210.476 10.2 210.681 10.08 210.841 9.93C211.071 9.75 211.186 9.56 211.186 9.36V8.61C210.976 8.53 210.746 8.47 210.496 8.43C210.256 8.38 210.031 8.355 209.821 8.355C209.381 8.355 209.016 8.455 208.726 8.655C208.446 8.855 208.306 9.115 208.306 9.435C208.306 9.725 208.416 9.965 208.636 10.155C208.856 10.335 209.136 10.425 209.476 10.425ZM215.295 1.05H217.695V9.195C217.695 9.795 217.95 10.095 218.46 10.095C218.58 10.095 218.71 10.08 218.85 10.05C219 10.01 219.135 9.955 219.255 9.885L219.57 11.685C219.27 11.825 218.925 11.935 218.535 12.015C218.145 12.095 217.78 12.135 217.44 12.135C216.75 12.135 216.22 11.955 215.85 11.595C215.48 11.235 215.295 10.715 215.295 10.035V1.05ZM220.32 1.05H222.72V9.195C222.72 9.795 222.975 10.095 223.485 10.095C223.605 10.095 223.735 10.08 223.875 10.05C224.025 10.01 224.16 9.955 224.28 9.885L224.595 11.685C224.295 11.825 223.95 11.935 223.56 12.015C223.17 12.095 222.805 12.135 222.465 12.135C221.775 12.135 221.245 11.955 220.875 11.595C220.505 11.235 220.32 10.715 220.32 10.035V1.05ZM225.374 12V4.125H227.774V12H225.374ZM225.374 3.225V1.05H227.774V3.225H225.374ZM237.007 12H234.607V7.575C234.607 7.055 234.507 6.68 234.307 6.45C234.117 6.21 233.862 6.09 233.542 6.09C233.372 6.09 233.202 6.125 233.032 6.195C232.862 6.265 232.697 6.365 232.537 6.495C232.377 6.615 232.232 6.76 232.102 6.93C231.982 7.1 231.887 7.285 231.817 7.485V12H229.417V4.125H231.577V5.445C231.867 4.975 232.277 4.615 232.807 4.365C233.337 4.105 233.947 3.975 234.637 3.975C235.147 3.975 235.557 4.07 235.867 4.26C236.177 4.44 236.417 4.68 236.587 4.98C236.757 5.27 236.867 5.59 236.917 5.94C236.977 6.29 237.007 6.63 237.007 6.96V12ZM241.662 12.03C241.142 12.03 240.667 11.925 240.237 11.715C239.807 11.505 239.437 11.22 239.127 10.86C238.827 10.5 238.592 10.08 238.422 9.6C238.252 9.12 238.167 8.605 238.167 8.055C238.167 7.475 238.257 6.94 238.437 6.45C238.617 5.95 238.867 5.52 239.187 5.16C239.507 4.79 239.892 4.5 240.342 4.29C240.792 4.08 241.287 3.975 241.827 3.975C242.427 3.975 242.947 4.105 243.387 4.365C243.837 4.615 244.197 4.965 244.467 5.415V4.125H246.552V11.46C246.552 12.06 246.437 12.6 246.207 13.08C245.987 13.56 245.677 13.965 245.277 14.295C244.877 14.635 244.397 14.895 243.837 15.075C243.277 15.255 242.662 15.345 241.992 15.345C241.142 15.345 240.417 15.21 239.817 14.94C239.217 14.67 238.692 14.28 238.242 13.77L239.532 12.465C239.822 12.795 240.182 13.055 240.612 13.245C241.042 13.445 241.502 13.545 241.992 13.545C242.282 13.545 242.557 13.505 242.817 13.425C243.077 13.345 243.307 13.22 243.507 13.05C243.707 12.89 243.862 12.675 243.972 12.405C244.092 12.145 244.152 11.83 244.152 11.46V10.695C243.912 11.135 243.567 11.47 243.117 11.7C242.667 11.92 242.182 12.03 241.662 12.03ZM242.487 10.125C242.857 10.125 243.187 10.025 243.477 9.825C243.767 9.615 243.992 9.35 244.152 9.03V7.38C243.992 6.96 243.747 6.63 243.417 6.39C243.087 6.14 242.737 6.015 242.367 6.015C242.107 6.015 241.867 6.075 241.647 6.195C241.437 6.305 241.252 6.46 241.092 6.66C240.942 6.85 240.822 7.075 240.732 7.335C240.652 7.585 240.612 7.845 240.612 8.115C240.612 8.405 240.657 8.675 240.747 8.925C240.847 9.165 240.982 9.375 241.152 9.555C241.322 9.735 241.517 9.875 241.737 9.975C241.967 10.075 242.217 10.125 242.487 10.125ZM0.29123 24.585C0.29123 23.945 0.41123 23.31 0.651231 22.68C0.891231 22.04 1.24123 21.47 1.70123 20.97C2.16123 20.47 2.72123 20.065 3.38123 19.755C4.04123 19.445 4.79123 19.29 5.63123 19.29C6.63123 19.29 7.49623 19.505 8.22623 19.935C8.96623 20.365 9.51623 20.925 9.87623 21.615L7.98623 22.935C7.86623 22.655 7.71123 22.425 7.52123 22.245C7.34123 22.055 7.14123 21.905 6.92123 21.795C6.70123 21.675 6.47623 21.595 6.24623 21.555C6.01623 21.505 5.79123 21.48 5.57123 21.48C5.10123 21.48 4.69123 21.575 4.34123 21.765C3.99123 21.955 3.70123 22.2 3.47123 22.5C3.24123 22.8 3.07123 23.14 2.96123 23.52C2.85123 23.9 2.79623 24.285 2.79623 24.675C2.79623 25.095 2.86123 25.5 2.99123 25.89C3.12123 26.28 3.30623 26.625 3.54623 26.925C3.79623 27.225 4.09123 27.465 4.43123 27.645C4.78123 27.815 5.17123 27.9 5.60123 27.9C5.82123 27.9 6.04623 27.875 6.27623 27.825C6.51623 27.765 6.74123 27.68 6.95123 27.57C7.17123 27.45 7.37123 27.3 7.55123 27.12C7.73123 26.93 7.87623 26.7 7.98623 26.43L9.99623 27.615C9.83623 28.005 9.59623 28.355 9.27623 28.665C8.96623 28.975 8.60623 29.235 8.19623 29.445C7.78623 29.655 7.35123 29.815 6.89123 29.925C6.43123 30.035 5.98123 30.09 5.54123 30.09C4.77123 30.09 4.06123 29.935 3.41123 29.625C2.77123 29.305 2.21623 28.885 1.74623 28.365C1.28623 27.845 0.92623 27.255 0.66623 26.595C0.41623 25.935 0.29123 25.265 0.29123 24.585ZM13.2734 30.15C12.8834 30.15 12.5184 30.09 12.1784 29.97C11.8484 29.84 11.5634 29.665 11.3234 29.445C11.0834 29.215 10.8934 28.95 10.7534 28.65C10.6134 28.34 10.5434 28.005 10.5434 27.645C10.5434 27.255 10.6234 26.9 10.7834 26.58C10.9534 26.26 11.1884 25.985 11.4884 25.755C11.7884 25.525 12.1434 25.345 12.5534 25.215C12.9634 25.085 13.4184 25.02 13.9184 25.02C14.2484 25.02 14.5684 25.05 14.8784 25.11C15.1884 25.16 15.4584 25.24 15.6884 25.35V24.99C15.6884 24.08 15.1634 23.625 14.1134 23.625C13.6834 23.625 13.2734 23.7 12.8834 23.85C12.4934 23.99 12.0834 24.205 11.6534 24.495L10.9484 22.995C11.4684 22.655 12.0084 22.4 12.5684 22.23C13.1284 22.06 13.7234 21.975 14.3534 21.975C15.5434 21.975 16.4634 22.255 17.1134 22.815C17.7634 23.375 18.0884 24.195 18.0884 25.275V27.3C18.0884 27.54 18.1234 27.71 18.1934 27.81C18.2734 27.9 18.4084 27.955 18.5984 27.975V30C18.3884 30.05 18.1984 30.08 18.0284 30.09C17.8584 30.11 17.7034 30.12 17.5634 30.12C17.1134 30.12 16.7734 30.035 16.5434 29.865C16.3134 29.685 16.1684 29.435 16.1084 29.115L16.0634 28.755C15.7134 29.205 15.2934 29.55 14.8034 29.79C14.3234 30.03 13.8134 30.15 13.2734 30.15ZM13.9784 28.425C14.2384 28.425 14.4884 28.38 14.7284 28.29C14.9784 28.2 15.1834 28.08 15.3434 27.93C15.5734 27.75 15.6884 27.56 15.6884 27.36V26.61C15.4784 26.53 15.2484 26.47 14.9984 26.43C14.7584 26.38 14.5334 26.355 14.3234 26.355C13.8834 26.355 13.5184 26.455 13.2284 26.655C12.9484 26.855 12.8084 27.115 12.8084 27.435C12.8084 27.725 12.9184 27.965 13.1384 28.155C13.3584 28.335 13.6384 28.425 13.9784 28.425ZM27.4174 30H25.0174V25.575C25.0174 25.055 24.9174 24.68 24.7174 24.45C24.5274 24.21 24.2724 24.09 23.9524 24.09C23.7824 24.09 23.6124 24.125 23.4424 24.195C23.2724 24.265 23.1074 24.365 22.9474 24.495C22.7874 24.615 22.6424 24.76 22.5124 24.93C22.3924 25.1 22.2974 25.285 22.2274 25.485V30H19.8274V22.125H21.9874V23.445C22.2774 22.975 22.6874 22.615 23.2174 22.365C23.7474 22.105 24.3574 21.975 25.0474 21.975C25.5574 21.975 25.9674 22.07 26.2774 22.26C26.5874 22.44 26.8274 22.68 26.9974 22.98C27.1674 23.27 27.2774 23.59 27.3274 23.94C27.3874 24.29 27.4174 24.63 27.4174 24.96V30ZM28.592 24.585C28.592 23.945 28.712 23.31 28.952 22.68C29.192 22.04 29.542 21.47 30.002 20.97C30.462 20.47 31.022 20.065 31.682 19.755C32.342 19.445 33.092 19.29 33.932 19.29C34.932 19.29 35.797 19.505 36.527 19.935C37.267 20.365 37.817 20.925 38.177 21.615L36.287 22.935C36.167 22.655 36.012 22.425 35.822 22.245C35.642 22.055 35.442 21.905 35.222 21.795C35.002 21.675 34.777 21.595 34.547 21.555C34.317 21.505 34.092 21.48 33.872 21.48C33.402 21.48 32.992 21.575 32.642 21.765C32.292 21.955 32.002 22.2 31.772 22.5C31.542 22.8 31.372 23.14 31.262 23.52C31.152 23.9 31.097 24.285 31.097 24.675C31.097 25.095 31.162 25.5 31.292 25.89C31.422 26.28 31.607 26.625 31.847 26.925C32.097 27.225 32.392 27.465 32.732 27.645C33.082 27.815 33.472 27.9 33.902 27.9C34.122 27.9 34.347 27.875 34.577 27.825C34.817 27.765 35.042 27.68 35.252 27.57C35.472 27.45 35.672 27.3 35.852 27.12C36.032 26.93 36.177 26.7 36.287 26.43L38.297 27.615C38.137 28.005 37.897 28.355 37.577 28.665C37.267 28.975 36.907 29.235 36.497 29.445C36.087 29.655 35.652 29.815 35.192 29.925C34.732 30.035 34.282 30.09 33.842 30.09C33.072 30.09 32.362 29.935 31.712 29.625C31.072 29.305 30.517 28.885 30.047 28.365C29.587 27.845 29.227 27.255 28.967 26.595C28.717 25.935 28.592 25.265 28.592 24.585ZM43.0892 30.15C42.4192 30.15 41.8192 30.04 41.2892 29.82C40.7692 29.6 40.3292 29.305 39.9692 28.935C39.6092 28.555 39.3342 28.12 39.1442 27.63C38.9642 27.13 38.8742 26.61 38.8742 26.07C38.8742 25.53 38.9642 25.015 39.1442 24.525C39.3342 24.025 39.6092 23.59 39.9692 23.22C40.3292 22.84 40.7692 22.54 41.2892 22.32C41.8192 22.09 42.4192 21.975 43.0892 21.975C43.7592 21.975 44.3542 22.09 44.8742 22.32C45.3942 22.54 45.8342 22.84 46.1942 23.22C46.5542 23.59 46.8292 24.025 47.0192 24.525C47.2092 25.015 47.3042 25.53 47.3042 26.07C47.3042 26.61 47.2092 27.13 47.0192 27.63C46.8392 28.12 46.5692 28.555 46.2092 28.935C45.8492 29.305 45.4042 29.6 44.8742 29.82C44.3542 30.04 43.7592 30.15 43.0892 30.15ZM41.3342 26.07C41.3342 26.69 41.4992 27.19 41.8292 27.57C42.1592 27.94 42.5792 28.125 43.0892 28.125C43.3392 28.125 43.5692 28.075 43.7792 27.975C43.9892 27.875 44.1692 27.735 44.3192 27.555C44.4792 27.375 44.6042 27.16 44.6942 26.91C44.7842 26.65 44.8292 26.37 44.8292 26.07C44.8292 25.45 44.6642 24.955 44.3342 24.585C44.0042 24.205 43.5892 24.015 43.0892 24.015C42.8392 24.015 42.6042 24.065 42.3842 24.165C42.1742 24.265 41.9892 24.405 41.8292 24.585C41.6792 24.765 41.5592 24.985 41.4692 25.245C41.3792 25.495 41.3342 25.77 41.3342 26.07ZM51.7644 30.15C51.2244 30.15 50.7244 30.05 50.2644 29.85C49.8144 29.64 49.4244 29.35 49.0944 28.98C48.7644 28.61 48.5044 28.18 48.3144 27.69C48.1344 27.19 48.0444 26.645 48.0444 26.055C48.0444 25.485 48.1294 24.95 48.2994 24.45C48.4694 23.95 48.7094 23.52 49.0194 23.16C49.3294 22.79 49.6944 22.5 50.1144 22.29C50.5444 22.08 51.0144 21.975 51.5244 21.975C52.0744 21.975 52.5694 22.105 53.0094 22.365C53.4594 22.625 53.8044 22.975 54.0444 23.415V19.05H56.4444V27.3C56.4444 27.54 56.4794 27.71 56.5494 27.81C56.6294 27.9 56.7644 27.955 56.9544 27.975V30C56.7344 30.05 56.5444 30.08 56.3844 30.09C56.2244 30.11 56.0744 30.12 55.9344 30.12C55.5144 30.12 55.1744 30.035 54.9144 29.865C54.6544 29.685 54.5044 29.43 54.4644 29.1L54.4194 28.695C54.1394 29.185 53.7594 29.55 53.2794 29.79C52.8094 30.03 52.3044 30.15 51.7644 30.15ZM52.4094 28.125C52.7394 28.125 53.0544 28.03 53.3544 27.84C53.6644 27.64 53.8994 27.37 54.0594 27.03V25.38C53.9094 24.98 53.6644 24.655 53.3244 24.405C52.9944 24.145 52.6494 24.015 52.2894 24.015C52.0294 24.015 51.7894 24.075 51.5694 24.195C51.3594 24.305 51.1744 24.455 51.0144 24.645C50.8544 24.835 50.7294 25.055 50.6394 25.305C50.5594 25.555 50.5194 25.82 50.5194 26.1C50.5194 26.39 50.5644 26.66 50.6544 26.91C50.7544 27.16 50.8844 27.375 51.0444 27.555C51.2144 27.735 51.4144 27.875 51.6444 27.975C51.8844 28.075 52.1394 28.125 52.4094 28.125ZM62.0739 30.15C61.4139 30.15 60.8189 30.045 60.2889 29.835C59.7689 29.615 59.3239 29.32 58.9539 28.95C58.5939 28.58 58.3189 28.155 58.1289 27.675C57.9389 27.185 57.8439 26.675 57.8439 26.145C57.8439 25.575 57.9389 25.04 58.1289 24.54C58.3189 24.03 58.5939 23.585 58.9539 23.205C59.3139 22.825 59.7539 22.525 60.2739 22.305C60.8039 22.085 61.4039 21.975 62.0739 21.975C62.7439 21.975 63.3389 22.085 63.8589 22.305C64.3789 22.525 64.8189 22.825 65.1789 23.205C65.5389 23.575 65.8089 24.005 65.9889 24.495C66.1789 24.985 66.2739 25.5 66.2739 26.04C66.2739 26.18 66.2689 26.32 66.2589 26.46C66.2489 26.59 66.2339 26.705 66.2139 26.805H60.3939C60.4339 27.335 60.6239 27.74 60.9639 28.02C61.3139 28.29 61.7089 28.425 62.1489 28.425C62.4989 28.425 62.8339 28.34 63.1539 28.17C63.4839 28 63.7039 27.77 63.8139 27.48L65.8539 28.05C65.5439 28.67 65.0639 29.175 64.4139 29.565C63.7639 29.955 62.9839 30.15 62.0739 30.15ZM63.7389 25.32C63.6889 24.82 63.5089 24.425 63.1989 24.135C62.8889 23.845 62.5039 23.7 62.0439 23.7C61.5739 23.7 61.1839 23.85 60.8739 24.15C60.5739 24.44 60.3989 24.83 60.3489 25.32H63.7389ZM67.3466 30V27.555H69.3116V30H67.3466ZM70.9505 30V22.125H73.3505V30H70.9505ZM70.9505 21.225V19.05H73.3505V21.225H70.9505ZM78.7435 30.15C78.0735 30.15 77.4735 30.04 76.9435 29.82C76.4235 29.6 75.9835 29.305 75.6235 28.935C75.2635 28.555 74.9885 28.12 74.7985 27.63C74.6185 27.13 74.5285 26.61 74.5285 26.07C74.5285 25.53 74.6185 25.015 74.7985 24.525C74.9885 24.025 75.2635 23.59 75.6235 23.22C75.9835 22.84 76.4235 22.54 76.9435 22.32C77.4735 22.09 78.0735 21.975 78.7435 21.975C79.4135 21.975 80.0085 22.09 80.5285 22.32C81.0485 22.54 81.4885 22.84 81.8485 23.22C82.2085 23.59 82.4835 24.025 82.6735 24.525C82.8635 25.015 82.9585 25.53 82.9585 26.07C82.9585 26.61 82.8635 27.13 82.6735 27.63C82.4935 28.12 82.2235 28.555 81.8635 28.935C81.5035 29.305 81.0585 29.6 80.5285 29.82C80.0085 30.04 79.4135 30.15 78.7435 30.15ZM76.9885 26.07C76.9885 26.69 77.1535 27.19 77.4835 27.57C77.8135 27.94 78.2335 28.125 78.7435 28.125C78.9935 28.125 79.2235 28.075 79.4335 27.975C79.6435 27.875 79.8235 27.735 79.9735 27.555C80.1335 27.375 80.2585 27.16 80.3485 26.91C80.4385 26.65 80.4835 26.37 80.4835 26.07C80.4835 25.45 80.3185 24.955 79.9885 24.585C79.6585 24.205 79.2435 24.015 78.7435 24.015C78.4935 24.015 78.2585 24.065 78.0385 24.165C77.8285 24.265 77.6435 24.405 77.4835 24.585C77.3335 24.765 77.2135 24.985 77.1235 25.245C77.0335 25.495 76.9885 25.77 76.9885 26.07ZM90.271 19.35H92.491L96.376 30H93.856L93.031 27.615H89.716L88.906 30H86.386L90.271 19.35ZM92.626 25.92L91.381 22.155L90.106 25.92H92.626ZM102.21 30.15C101.61 30.15 101.09 30.025 100.65 29.775C100.21 29.525 99.8698 29.175 99.6298 28.725V33.195H97.2298V22.125H99.3148V23.4C99.6048 22.95 99.9648 22.6 100.395 22.35C100.835 22.1 101.355 21.975 101.955 21.975C102.485 21.975 102.97 22.08 103.41 22.29C103.86 22.5 104.245 22.79 104.565 23.16C104.895 23.52 105.15 23.95 105.33 24.45C105.52 24.94 105.615 25.47 105.615 26.04C105.615 26.63 105.53 27.175 105.36 27.675C105.19 28.175 104.955 28.61 104.655 28.98C104.355 29.34 103.995 29.625 103.575 29.835C103.155 30.045 102.7 30.15 102.21 30.15ZM101.4 28.125C101.66 28.125 101.895 28.07 102.105 27.96C102.325 27.84 102.515 27.685 102.675 27.495C102.835 27.305 102.955 27.085 103.035 26.835C103.125 26.575 103.17 26.305 103.17 26.025C103.17 25.735 103.12 25.47 103.02 25.23C102.93 24.98 102.8 24.765 102.63 24.585C102.47 24.405 102.27 24.265 102.03 24.165C101.8 24.065 101.55 24.015 101.28 24.015C100.95 24.015 100.63 24.115 100.32 24.315C100.02 24.505 99.7898 24.765 99.6298 25.095V26.715C99.7898 27.115 100.03 27.45 100.35 27.72C100.68 27.99 101.03 28.125 101.4 28.125ZM111.805 30.15C111.205 30.15 110.685 30.025 110.245 29.775C109.805 29.525 109.465 29.175 109.225 28.725V33.195H106.825V22.125H108.91V23.4C109.2 22.95 109.56 22.6 109.99 22.35C110.43 22.1 110.95 21.975 111.55 21.975C112.08 21.975 112.565 22.08 113.005 22.29C113.455 22.5 113.84 22.79 114.16 23.16C114.49 23.52 114.745 23.95 114.925 24.45C115.115 24.94 115.21 25.47 115.21 26.04C115.21 26.63 115.125 27.175 114.955 27.675C114.785 28.175 114.55 28.61 114.25 28.98C113.95 29.34 113.59 29.625 113.17 29.835C112.75 30.045 112.295 30.15 111.805 30.15ZM110.995 28.125C111.255 28.125 111.49 28.07 111.7 27.96C111.92 27.84 112.11 27.685 112.27 27.495C112.43 27.305 112.55 27.085 112.63 26.835C112.72 26.575 112.765 26.305 112.765 26.025C112.765 25.735 112.715 25.47 112.615 25.23C112.525 24.98 112.395 24.765 112.225 24.585C112.065 24.405 111.865 24.265 111.625 24.165C111.395 24.065 111.145 24.015 110.875 24.015C110.545 24.015 110.225 24.115 109.915 24.315C109.615 24.505 109.385 24.765 109.225 25.095V26.715C109.385 27.115 109.625 27.45 109.945 27.72C110.275 27.99 110.625 28.125 110.995 28.125ZM116.307 22.995L116.667 21.105H115.992V18.9H118.437V21.15L117.867 22.995H116.307ZM122.879 30.15C122.209 30.15 121.549 30.045 120.899 29.835C120.249 29.615 119.699 29.3 119.249 28.89L120.104 27.42C120.584 27.75 121.049 28.005 121.499 28.185C121.959 28.365 122.399 28.455 122.819 28.455C123.129 28.455 123.369 28.4 123.539 28.29C123.709 28.18 123.794 28.02 123.794 27.81C123.794 27.6 123.684 27.435 123.464 27.315C123.254 27.185 122.879 27.05 122.339 26.91C121.809 26.76 121.359 26.615 120.989 26.475C120.629 26.335 120.334 26.18 120.104 26.01C119.874 25.84 119.709 25.645 119.609 25.425C119.509 25.205 119.459 24.945 119.459 24.645C119.459 24.245 119.539 23.88 119.699 23.55C119.859 23.22 120.079 22.94 120.359 22.71C120.639 22.48 120.969 22.3 121.349 22.17C121.739 22.04 122.159 21.975 122.609 21.975C123.199 21.975 123.749 22.055 124.259 22.215C124.779 22.375 125.279 22.665 125.759 23.085L124.829 24.525C124.379 24.215 123.979 23.99 123.629 23.85C123.279 23.71 122.939 23.64 122.609 23.64C122.349 23.64 122.129 23.695 121.949 23.805C121.769 23.905 121.679 24.07 121.679 24.3C121.679 24.52 121.774 24.685 121.964 24.795C122.164 24.905 122.529 25.025 123.059 25.155C123.619 25.305 124.089 25.455 124.469 25.605C124.859 25.755 125.174 25.925 125.414 26.115C125.654 26.295 125.829 26.505 125.939 26.745C126.049 26.985 126.104 27.27 126.104 27.6C126.104 28.38 125.814 29 125.234 29.46C124.654 29.92 123.869 30.15 122.879 30.15ZM130.745 26.955V24.795H135.365V26.955H130.745ZM149.501 27.27C149.501 27.73 149.406 28.13 149.216 28.47C149.026 28.81 148.766 29.095 148.436 29.325C148.106 29.545 147.721 29.715 147.281 29.835C146.841 29.945 146.376 30 145.886 30H140.696V19.35H146.621C146.991 19.35 147.326 19.43 147.626 19.59C147.926 19.75 148.181 19.96 148.391 20.22C148.601 20.47 148.761 20.76 148.871 21.09C148.991 21.41 149.051 21.74 149.051 22.08C149.051 22.59 148.921 23.07 148.661 23.52C148.411 23.97 148.031 24.31 147.521 24.54C148.131 24.72 148.611 25.04 148.961 25.5C149.321 25.96 149.501 26.55 149.501 27.27ZM146.996 26.775C146.996 26.445 146.901 26.165 146.711 25.935C146.521 25.705 146.281 25.59 145.991 25.59H143.156V27.915H145.886C146.206 27.915 146.471 27.81 146.681 27.6C146.891 27.39 146.996 27.115 146.996 26.775ZM143.156 21.45V23.655H145.571C145.841 23.655 146.081 23.565 146.291 23.385C146.501 23.205 146.606 22.925 146.606 22.545C146.606 22.195 146.511 21.925 146.321 21.735C146.141 21.545 145.921 21.45 145.661 21.45H143.156ZM153.14 30.15C152.33 30.15 151.715 29.9 151.295 29.4C150.885 28.89 150.68 28.145 150.68 27.165V22.125H153.08V26.64C153.08 27.12 153.175 27.49 153.365 27.75C153.555 28 153.825 28.125 154.175 28.125C154.495 28.125 154.805 28.04 155.105 27.87C155.405 27.7 155.67 27.405 155.9 26.985V22.125H158.3V27.3C158.3 27.54 158.335 27.71 158.405 27.81C158.485 27.9 158.62 27.955 158.81 27.975V30C158.58 30.05 158.385 30.08 158.225 30.09C158.065 30.11 157.92 30.12 157.79 30.12C156.93 30.12 156.44 29.785 156.32 29.115L156.275 28.635C155.915 29.155 155.465 29.54 154.925 29.79C154.395 30.03 153.8 30.15 153.14 30.15ZM167.749 30H165.349V25.575C165.349 25.055 165.249 24.68 165.049 24.45C164.859 24.21 164.604 24.09 164.284 24.09C164.114 24.09 163.944 24.125 163.774 24.195C163.604 24.265 163.439 24.365 163.279 24.495C163.119 24.615 162.974 24.76 162.844 24.93C162.724 25.1 162.629 25.285 162.559 25.485V30H160.159V22.125H162.319V23.445C162.609 22.975 163.019 22.615 163.549 22.365C164.079 22.105 164.689 21.975 165.379 21.975C165.889 21.975 166.299 22.07 166.609 22.26C166.919 22.44 167.159 22.68 167.329 22.98C167.499 23.27 167.609 23.59 167.659 23.94C167.719 24.29 167.749 24.63 167.749 24.96V30ZM172.614 30.15C172.074 30.15 171.574 30.05 171.114 29.85C170.664 29.64 170.274 29.35 169.944 28.98C169.614 28.61 169.354 28.18 169.164 27.69C168.984 27.19 168.894 26.645 168.894 26.055C168.894 25.485 168.979 24.95 169.149 24.45C169.319 23.95 169.559 23.52 169.869 23.16C170.179 22.79 170.544 22.5 170.964 22.29C171.394 22.08 171.864 21.975 172.374 21.975C172.924 21.975 173.419 22.105 173.859 22.365C174.309 22.625 174.654 22.975 174.894 23.415V19.05H177.294V27.3C177.294 27.54 177.329 27.71 177.399 27.81C177.479 27.9 177.614 27.955 177.804 27.975V30C177.584 30.05 177.394 30.08 177.234 30.09C177.074 30.11 176.924 30.12 176.784 30.12C176.364 30.12 176.024 30.035 175.764 29.865C175.504 29.685 175.354 29.43 175.314 29.1L175.269 28.695C174.989 29.185 174.609 29.55 174.129 29.79C173.659 30.03 173.154 30.15 172.614 30.15ZM173.259 28.125C173.589 28.125 173.904 28.03 174.204 27.84C174.514 27.64 174.749 27.37 174.909 27.03V25.38C174.759 24.98 174.514 24.655 174.174 24.405C173.844 24.145 173.499 24.015 173.139 24.015C172.879 24.015 172.639 24.075 172.419 24.195C172.209 24.305 172.024 24.455 171.864 24.645C171.704 24.835 171.579 25.055 171.489 25.305C171.409 25.555 171.369 25.82 171.369 26.1C171.369 26.39 171.414 26.66 171.504 26.91C171.604 27.16 171.734 27.375 171.894 27.555C172.064 27.735 172.264 27.875 172.494 27.975C172.734 28.075 172.989 28.125 173.259 28.125ZM179.128 19.05H181.528V27.195C181.528 27.795 181.783 28.095 182.293 28.095C182.413 28.095 182.543 28.08 182.683 28.05C182.833 28.01 182.968 27.955 183.088 27.885L183.403 29.685C183.103 29.825 182.758 29.935 182.368 30.015C181.978 30.095 181.613 30.135 181.273 30.135C180.583 30.135 180.053 29.955 179.683 29.595C179.313 29.235 179.128 28.715 179.128 28.035V19.05ZM187.948 30.15C187.288 30.15 186.693 30.045 186.163 29.835C185.643 29.615 185.198 29.32 184.828 28.95C184.468 28.58 184.193 28.155 184.003 27.675C183.813 27.185 183.718 26.675 183.718 26.145C183.718 25.575 183.813 25.04 184.003 24.54C184.193 24.03 184.468 23.585 184.828 23.205C185.188 22.825 185.628 22.525 186.148 22.305C186.678 22.085 187.278 21.975 187.948 21.975C188.618 21.975 189.213 22.085 189.733 22.305C190.253 22.525 190.693 22.825 191.053 23.205C191.413 23.575 191.683 24.005 191.863 24.495C192.053 24.985 192.148 25.5 192.148 26.04C192.148 26.18 192.143 26.32 192.133 26.46C192.123 26.59 192.108 26.705 192.088 26.805H186.268C186.308 27.335 186.498 27.74 186.838 28.02C187.188 28.29 187.583 28.425 188.023 28.425C188.373 28.425 188.708 28.34 189.028 28.17C189.358 28 189.578 27.77 189.688 27.48L191.728 28.05C191.418 28.67 190.938 29.175 190.288 29.565C189.638 29.955 188.858 30.15 187.948 30.15ZM189.613 25.32C189.563 24.82 189.383 24.425 189.073 24.135C188.763 23.845 188.378 23.7 187.918 23.7C187.448 23.7 187.058 23.85 186.748 24.15C186.448 24.44 186.273 24.83 186.223 25.32H189.613ZM196.932 30V19.35H200.907C201.787 19.35 202.557 19.49 203.217 19.77C203.877 20.05 204.427 20.43 204.867 20.91C205.317 21.39 205.652 21.955 205.872 22.605C206.102 23.245 206.217 23.93 206.217 24.66C206.217 25.47 206.092 26.205 205.842 26.865C205.592 27.515 205.232 28.075 204.762 28.545C204.302 29.005 203.742 29.365 203.082 29.625C202.432 29.875 201.707 30 200.907 30H196.932ZM203.712 24.66C203.712 24.19 203.647 23.765 203.517 23.385C203.397 22.995 203.217 22.66 202.977 22.38C202.737 22.1 202.442 21.885 202.092 21.735C201.742 21.585 201.347 21.51 200.907 21.51H199.392V27.84H200.907C201.357 27.84 201.757 27.76 202.107 27.6C202.457 27.44 202.747 27.22 202.977 26.94C203.217 26.65 203.397 26.315 203.517 25.935C203.647 25.545 203.712 25.12 203.712 24.66ZM207.474 30V22.125H209.874V30H207.474ZM207.474 21.225V19.05H209.874V21.225H207.474ZM214.622 30.15C213.952 30.15 213.292 30.045 212.642 29.835C211.992 29.615 211.442 29.3 210.992 28.89L211.847 27.42C212.327 27.75 212.792 28.005 213.242 28.185C213.702 28.365 214.142 28.455 214.562 28.455C214.872 28.455 215.112 28.4 215.282 28.29C215.452 28.18 215.537 28.02 215.537 27.81C215.537 27.6 215.427 27.435 215.207 27.315C214.997 27.185 214.622 27.05 214.082 26.91C213.552 26.76 213.102 26.615 212.732 26.475C212.372 26.335 212.077 26.18 211.847 26.01C211.617 25.84 211.452 25.645 211.352 25.425C211.252 25.205 211.202 24.945 211.202 24.645C211.202 24.245 211.282 23.88 211.442 23.55C211.602 23.22 211.822 22.94 212.102 22.71C212.382 22.48 212.712 22.3 213.092 22.17C213.482 22.04 213.902 21.975 214.352 21.975C214.942 21.975 215.492 22.055 216.002 22.215C216.522 22.375 217.022 22.665 217.502 23.085L216.572 24.525C216.122 24.215 215.722 23.99 215.372 23.85C215.022 23.71 214.682 23.64 214.352 23.64C214.092 23.64 213.872 23.695 213.692 23.805C213.512 23.905 213.422 24.07 213.422 24.3C213.422 24.52 213.517 24.685 213.707 24.795C213.907 24.905 214.272 25.025 214.802 25.155C215.362 25.305 215.832 25.455 216.212 25.605C216.602 25.755 216.917 25.925 217.157 26.115C217.397 26.295 217.572 26.505 217.682 26.745C217.792 26.985 217.847 27.27 217.847 27.6C217.847 28.38 217.557 29 216.977 29.46C216.397 29.92 215.612 30.15 214.622 30.15ZM218.537 26.055C218.537 25.515 218.632 25 218.822 24.51C219.012 24.01 219.287 23.575 219.647 23.205C220.007 22.825 220.447 22.525 220.967 22.305C221.497 22.085 222.097 21.975 222.767 21.975C223.677 21.975 224.442 22.17 225.062 22.56C225.682 22.94 226.147 23.44 226.457 24.06L224.117 24.765C223.807 24.265 223.352 24.015 222.752 24.015C222.252 24.015 221.832 24.2 221.492 24.57C221.162 24.94 220.997 25.435 220.997 26.055C220.997 26.365 221.042 26.65 221.132 26.91C221.222 27.16 221.347 27.375 221.507 27.555C221.667 27.735 221.852 27.875 222.062 27.975C222.282 28.075 222.512 28.125 222.752 28.125C223.052 28.125 223.327 28.055 223.577 27.915C223.827 27.765 224.012 27.575 224.132 27.345L226.472 28.065C226.182 28.675 225.717 29.175 225.077 29.565C224.447 29.955 223.677 30.15 222.767 30.15C222.107 30.15 221.512 30.04 220.982 29.82C220.462 29.59 220.017 29.29 219.647 28.92C219.287 28.54 219.012 28.105 218.822 27.615C218.632 27.115 218.537 26.595 218.537 26.055ZM231.234 30.15C230.564 30.15 229.964 30.04 229.434 29.82C228.914 29.6 228.474 29.305 228.114 28.935C227.754 28.555 227.479 28.12 227.289 27.63C227.109 27.13 227.019 26.61 227.019 26.07C227.019 25.53 227.109 25.015 227.289 24.525C227.479 24.025 227.754 23.59 228.114 23.22C228.474 22.84 228.914 22.54 229.434 22.32C229.964 22.09 230.564 21.975 231.234 21.975C231.904 21.975 232.499 22.09 233.019 22.32C233.539 22.54 233.979 22.84 234.339 23.22C234.699 23.59 234.974 24.025 235.164 24.525C235.354 25.015 235.449 25.53 235.449 26.07C235.449 26.61 235.354 27.13 235.164 27.63C234.984 28.12 234.714 28.555 234.354 28.935C233.994 29.305 233.549 29.6 233.019 29.82C232.499 30.04 231.904 30.15 231.234 30.15ZM229.479 26.07C229.479 26.69 229.644 27.19 229.974 27.57C230.304 27.94 230.724 28.125 231.234 28.125C231.484 28.125 231.714 28.075 231.924 27.975C232.134 27.875 232.314 27.735 232.464 27.555C232.624 27.375 232.749 27.16 232.839 26.91C232.929 26.65 232.974 26.37 232.974 26.07C232.974 25.45 232.809 24.955 232.479 24.585C232.149 24.205 231.734 24.015 231.234 24.015C230.984 24.015 230.749 24.065 230.529 24.165C230.319 24.265 230.134 24.405 229.974 24.585C229.824 24.765 229.704 24.985 229.614 25.245C229.524 25.495 229.479 25.77 229.479 26.07ZM239.024 30.15C238.214 30.15 237.599 29.9 237.179 29.4C236.769 28.89 236.564 28.145 236.564 27.165V22.125H238.964V26.64C238.964 27.12 239.059 27.49 239.249 27.75C239.439 28 239.709 28.125 240.059 28.125C240.379 28.125 240.689 28.04 240.989 27.87C241.289 27.7 241.554 27.405 241.784 26.985V22.125H244.184V27.3C244.184 27.54 244.219 27.71 244.289 27.81C244.369 27.9 244.504 27.955 244.694 27.975V30C244.464 30.05 244.269 30.08 244.109 30.09C243.949 30.11 243.804 30.12 243.674 30.12C242.814 30.12 242.324 29.785 242.204 29.115L242.159 28.635C241.799 29.155 241.349 29.54 240.809 29.79C240.279 30.03 239.684 30.15 239.024 30.15ZM253.633 30H251.233V25.575C251.233 25.055 251.133 24.68 250.933 24.45C250.743 24.21 250.488 24.09 250.168 24.09C249.998 24.09 249.828 24.125 249.658 24.195C249.488 24.265 249.323 24.365 249.163 24.495C249.003 24.615 248.858 24.76 248.728 24.93C248.608 25.1 248.513 25.285 248.443 25.485V30H246.043V22.125H248.203V23.445C248.493 22.975 248.903 22.615 249.433 22.365C249.963 22.105 250.573 21.975 251.263 21.975C251.773 21.975 252.183 22.07 252.493 22.26C252.803 22.44 253.043 22.68 253.213 22.98C253.383 23.27 253.493 23.59 253.543 23.94C253.603 24.29 253.633 24.63 253.633 24.96V30ZM260.255 29.58C259.925 29.72 259.545 29.85 259.115 29.97C258.695 30.09 258.27 30.15 257.84 30.15C257.54 30.15 257.255 30.11 256.985 30.03C256.725 29.96 256.495 29.845 256.295 29.685C256.095 29.515 255.935 29.295 255.815 29.025C255.705 28.755 255.65 28.43 255.65 28.05V23.94H254.645V22.125H255.65V19.62H258.05V22.125H259.655V23.94H258.05V27.225C258.05 27.485 258.115 27.675 258.245 27.795C258.375 27.905 258.54 27.96 258.74 27.96C258.92 27.96 259.105 27.93 259.295 27.87C259.485 27.81 259.65 27.745 259.79 27.675L260.255 29.58ZM273.286 30V23.625L270.976 28.26H269.656L267.346 23.625V30H264.886V19.35H267.556L270.316 24.915L273.091 19.35H275.746V30H273.286ZM279.758 30.15C279.368 30.15 279.003 30.09 278.663 29.97C278.333 29.84 278.048 29.665 277.808 29.445C277.568 29.215 277.378 28.95 277.238 28.65C277.098 28.34 277.028 28.005 277.028 27.645C277.028 27.255 277.108 26.9 277.268 26.58C277.438 26.26 277.673 25.985 277.973 25.755C278.273 25.525 278.628 25.345 279.038 25.215C279.448 25.085 279.903 25.02 280.403 25.02C280.733 25.02 281.053 25.05 281.363 25.11C281.673 25.16 281.943 25.24 282.173 25.35V24.99C282.173 24.08 281.648 23.625 280.598 23.625C280.168 23.625 279.758 23.7 279.368 23.85C278.978 23.99 278.568 24.205 278.138 24.495L277.433 22.995C277.953 22.655 278.493 22.4 279.053 22.23C279.613 22.06 280.208 21.975 280.838 21.975C282.028 21.975 282.948 22.255 283.598 22.815C284.248 23.375 284.573 24.195 284.573 25.275V27.3C284.573 27.54 284.608 27.71 284.678 27.81C284.758 27.9 284.893 27.955 285.083 27.975V30C284.873 30.05 284.683 30.08 284.513 30.09C284.343 30.11 284.188 30.12 284.048 30.12C283.598 30.12 283.258 30.035 283.028 29.865C282.798 29.685 282.653 29.435 282.593 29.115L282.548 28.755C282.198 29.205 281.778 29.55 281.288 29.79C280.808 30.03 280.298 30.15 279.758 30.15ZM280.463 28.425C280.723 28.425 280.973 28.38 281.213 28.29C281.463 28.2 281.668 28.08 281.828 27.93C282.058 27.75 282.173 27.56 282.173 27.36V26.61C281.963 26.53 281.733 26.47 281.483 26.43C281.243 26.38 281.018 26.355 280.808 26.355C280.368 26.355 280.003 26.455 279.713 26.655C279.433 26.855 279.293 27.115 279.293 27.435C279.293 27.725 279.403 27.965 279.623 28.155C279.843 28.335 280.123 28.425 280.463 28.425ZM293.902 30H291.502V25.575C291.502 25.055 291.402 24.68 291.202 24.45C291.012 24.21 290.757 24.09 290.437 24.09C290.267 24.09 290.097 24.125 289.927 24.195C289.757 24.265 289.592 24.365 289.432 24.495C289.272 24.615 289.127 24.76 288.997 24.93C288.877 25.1 288.782 25.285 288.712 25.485V30H286.312V22.125H288.472V23.445C288.762 22.975 289.172 22.615 289.702 22.365C290.232 22.105 290.842 21.975 291.532 21.975C292.042 21.975 292.452 22.07 292.762 22.26C293.072 22.44 293.312 22.68 293.482 22.98C293.652 23.27 293.762 23.59 293.812 23.94C293.872 24.29 293.902 24.63 293.902 24.96V30ZM297.731 30.15C297.341 30.15 296.976 30.09 296.636 29.97C296.306 29.84 296.021 29.665 295.781 29.445C295.541 29.215 295.351 28.95 295.211 28.65C295.071 28.34 295.001 28.005 295.001 27.645C295.001 27.255 295.081 26.9 295.241 26.58C295.411 26.26 295.646 25.985 295.946 25.755C296.246 25.525 296.601 25.345 297.011 25.215C297.421 25.085 297.876 25.02 298.376 25.02C298.706 25.02 299.026 25.05 299.336 25.11C299.646 25.16 299.916 25.24 300.146 25.35V24.99C300.146 24.08 299.621 23.625 298.571 23.625C298.141 23.625 297.731 23.7 297.341 23.85C296.951 23.99 296.541 24.205 296.111 24.495L295.406 22.995C295.926 22.655 296.466 22.4 297.026 22.23C297.586 22.06 298.181 21.975 298.811 21.975C300.001 21.975 300.921 22.255 301.571 22.815C302.221 23.375 302.546 24.195 302.546 25.275V27.3C302.546 27.54 302.581 27.71 302.651 27.81C302.731 27.9 302.866 27.955 303.056 27.975V30C302.846 30.05 302.656 30.08 302.486 30.09C302.316 30.11 302.161 30.12 302.021 30.12C301.571 30.12 301.231 30.035 301.001 29.865C300.771 29.685 300.626 29.435 300.566 29.115L300.521 28.755C300.171 29.205 299.751 29.55 299.261 29.79C298.781 30.03 298.271 30.15 297.731 30.15ZM298.436 28.425C298.696 28.425 298.946 28.38 299.186 28.29C299.436 28.2 299.641 28.08 299.801 27.93C300.031 27.75 300.146 27.56 300.146 27.36V26.61C299.936 26.53 299.706 26.47 299.456 26.43C299.216 26.38 298.991 26.355 298.781 26.355C298.341 26.355 297.976 26.455 297.686 26.655C297.406 26.855 297.266 27.115 297.266 27.435C297.266 27.725 297.376 27.965 297.596 28.155C297.816 28.335 298.096 28.425 298.436 28.425ZM307.345 30.03C306.825 30.03 306.35 29.925 305.92 29.715C305.49 29.505 305.12 29.22 304.81 28.86C304.51 28.5 304.275 28.08 304.105 27.6C303.935 27.12 303.85 26.605 303.85 26.055C303.85 25.475 303.94 24.94 304.12 24.45C304.3 23.95 304.55 23.52 304.87 23.16C305.19 22.79 305.575 22.5 306.025 22.29C306.475 22.08 306.97 21.975 307.51 21.975C308.11 21.975 308.63 22.105 309.07 22.365C309.52 22.615 309.88 22.965 310.15 23.415V22.125H312.235V29.46C312.235 30.06 312.12 30.6 311.89 31.08C311.67 31.56 311.36 31.965 310.96 32.295C310.56 32.635 310.08 32.895 309.52 33.075C308.96 33.255 308.345 33.345 307.675 33.345C306.825 33.345 306.1 33.21 305.5 32.94C304.9 32.67 304.375 32.28 303.925 31.77L305.215 30.465C305.505 30.795 305.865 31.055 306.295 31.245C306.725 31.445 307.185 31.545 307.675 31.545C307.965 31.545 308.24 31.505 308.5 31.425C308.76 31.345 308.99 31.22 309.19 31.05C309.39 30.89 309.545 30.675 309.655 30.405C309.775 30.145 309.835 29.83 309.835 29.46V28.695C309.595 29.135 309.25 29.47 308.8 29.7C308.35 29.92 307.865 30.03 307.345 30.03ZM308.17 28.125C308.54 28.125 308.87 28.025 309.16 27.825C309.45 27.615 309.675 27.35 309.835 27.03V25.38C309.675 24.96 309.43 24.63 309.1 24.39C308.77 24.14 308.42 24.015 308.05 24.015C307.79 24.015 307.55 24.075 307.33 24.195C307.12 24.305 306.935 24.46 306.775 24.66C306.625 24.85 306.505 25.075 306.415 25.335C306.335 25.585 306.295 25.845 306.295 26.115C306.295 26.405 306.34 26.675 306.43 26.925C306.53 27.165 306.665 27.375 306.835 27.555C307.005 27.735 307.2 27.875 307.42 27.975C307.65 28.075 307.9 28.125 308.17 28.125ZM317.645 30.15C316.985 30.15 316.39 30.045 315.86 29.835C315.34 29.615 314.895 29.32 314.525 28.95C314.165 28.58 313.89 28.155 313.7 27.675C313.51 27.185 313.415 26.675 313.415 26.145C313.415 25.575 313.51 25.04 313.7 24.54C313.89 24.03 314.165 23.585 314.525 23.205C314.885 22.825 315.325 22.525 315.845 22.305C316.375 22.085 316.975 21.975 317.645 21.975C318.315 21.975 318.91 22.085 319.43 22.305C319.95 22.525 320.39 22.825 320.75 23.205C321.11 23.575 321.38 24.005 321.56 24.495C321.75 24.985 321.845 25.5 321.845 26.04C321.845 26.18 321.84 26.32 321.83 26.46C321.82 26.59 321.805 26.705 321.785 26.805H315.965C316.005 27.335 316.195 27.74 316.535 28.02C316.885 28.29 317.28 28.425 317.72 28.425C318.07 28.425 318.405 28.34 318.725 28.17C319.055 28 319.275 27.77 319.385 27.48L321.425 28.05C321.115 28.67 320.635 29.175 319.985 29.565C319.335 29.955 318.555 30.15 317.645 30.15ZM319.31 25.32C319.26 24.82 319.08 24.425 318.77 24.135C318.46 23.845 318.075 23.7 317.615 23.7C317.145 23.7 316.755 23.85 316.445 24.15C316.145 24.44 315.97 24.83 315.92 25.32H319.31ZM327.928 24.18C327.348 24.19 326.823 24.285 326.353 24.465C325.883 24.645 325.543 24.915 325.333 25.275V30H322.933V22.125H325.138V23.715C325.408 23.185 325.753 22.77 326.173 22.47C326.603 22.17 327.058 22.015 327.538 22.005C327.648 22.005 327.728 22.005 327.778 22.005C327.828 22.005 327.878 22.01 327.928 22.02V24.18Z" fill="#4F4C4C"/>
</svg>
